<svg width="16" height="16" viewBox="0 0 16 16" fill="none" xmlns="http://www.w3.org/2000/svg">
<g clip-path="url(#clip0)">
<path d="M15.1168 2.91895e-08H0.88245C0.395039 0.000248091 -0.000124002 0.395628 2.91895e-08 0.883194V15.1175C0.000248091 15.605 0.395628 16.0001 0.883194 16H15.1168C15.6045 16.0001 15.9999 15.6048 16 15.1172V0.88245C15.9998 0.395039 15.6044 -0.000124002 15.1168 2.91895e-08Z" fill="#4267B2"/>
<path d="M11.0469 16V9.81251H13.1328L13.4453 7.39065H11.0469V5.84813C11.0469 5.14857 11.2411 4.67189 12.2443 4.67189H13.5156V2.51161C13.2945 2.48221 12.5355 2.41638 11.6525 2.41638C9.80872 2.41638 8.54689 3.54137 8.54689 5.60826V7.39065H6.46875V9.81251H8.54689V16H11.0469Z" fill="white"/>
</g>
<defs>
<clipPath id="clip0">
<rect width="16" height="16" fill="white"/>
</clipPath>
</defs>
</svg>
