<svg xmlns="http://www.w3.org/2000/svg" viewBox="0 0 24 24" width="14" height="14">
  <path d="M 487.517 -0 L 28.459 -0 C 12.74 0.008 -0.004 12.759 -0 28.483 L -0 487.541 C 0.008 503.26 12.759 516.004 28.483 516 L 487.517 516 C 503.245 516.004 515.996 503.256 516 487.529 L 516 28.459 C 515.992 12.74 503.241 -0.004 487.517 -0 Z M 487.517 -0" fill="rgb(66,103,178)"></path>
  <path d="M 356.262 516 L 356.262 316.453 L 423.533 316.453 L 433.611 238.348 L 356.262 238.348 L 356.262 188.602 C 356.262 166.041 362.525 150.668 394.877 150.668 L 435.879 150.668 L 435.879 80.999 C 428.746 80.051 404.271 77.928 375.792 77.928 C 316.331 77.928 275.637 114.209 275.637 180.866 L 275.637 238.348 L 208.617 238.348 L 208.617 316.453 L 275.637 316.453 L 275.637 516 Z M 356.262 516" fill="rgb(255,255,255)"></path>
</svg>